<svg id="visual" viewBox="0 0 900 600" width="900" height="600" xmlns="http://www.w3.org/2000/svg" xmlns:xlink="http://www.w3.org/1999/xlink" version="1.1"><g><g transform="translate(316 16)"><path d="M111 -85.5C141.1 -50.7 161 -4.7 154.4 39.6C147.7 83.9 114.6 126.6 73.5 142.4C32.4 158.3 -16.6 147.3 -57.3 125.3C-97.9 103.3 -130.1 70.2 -138.4 32.1C-146.7 -6 -131.1 -49.1 -104.1 -83.1C-77 -117.2 -38.5 -142.2 1 -142.9C40.4 -143.7 80.8 -120.2 111 -85.5Z" fill="#CCCCCC"/></g><g transform="translate(447 529)"><path d="M44.9 -38C55.4 -22.6 59.3 -4.1 56.4 14.5C53.4 33.2 43.8 52 27.3 62C10.8 72 -12.5 73.2 -28.9 63.9C-45.3 54.5 -54.7 34.6 -59.6 13.5C-64.4 -7.5 -64.7 -29.7 -54.1 -45.1C-43.4 -60.6 -21.7 -69.2 -2.2 -67.5C17.2 -65.7 34.4 -53.4 44.9 -38Z" fill="#CCCCCC"/></g><g transform="translate(60 530)"><path d="M80.8 -63.6C100.1 -40.3 107.8 -6.9 100.1 21.2C92.4 49.4 69.2 72.5 40.3 88.1C11.3 103.8 -23.3 112.1 -49.6 100.4C-76 88.8 -94 57.2 -101.5 23.4C-109.1 -10.4 -106.2 -46.4 -87.5 -69.6C-68.9 -92.8 -34.4 -103.2 -1.8 -101.8C30.8 -100.3 61.5 -87 80.8 -63.6Z" fill="#CCCCCC"/></g><g transform="translate(846 45)"><path d="M71.7 -58.6C85.7 -39.7 84.8 -10.3 76.5 14.1C68.3 38.4 52.7 57.7 30.8 71C8.9 84.2 -19.3 91.4 -44.4 82.9C-69.6 74.4 -91.6 50.2 -95.5 24.4C-99.3 -1.4 -84.9 -28.8 -66 -48.9C-47 -69 -23.5 -81.7 2.7 -83.8C28.9 -86 57.7 -77.5 71.7 -58.6Z" fill="#CCCCCC"/></g><g transform="translate(828 452)"><path d="M93.9 -69.9C118.7 -43.8 133.7 -4.9 127.2 31.1C120.6 67.1 92.4 100.3 56.1 118.5C19.9 136.7 -24.5 139.9 -60.1 123.3C-95.7 106.8 -122.6 70.4 -134.5 27.9C-146.4 -14.6 -143.4 -63.3 -118.5 -89.4C-93.6 -115.5 -46.8 -119 -6.1 -114.1C34.5 -109.3 69.1 -96 93.9 -69.9Z" fill="#CCCCCC"/></g></g></svg>