<svg id="visual" viewBox="0 0 900 600" width="900" height="600" xmlns="http://www.w3.org/2000/svg" xmlns:xlink="http://www.w3.org/1999/xlink" version="1.1"><rect x="0" y="0" width="900" height="600" fill="#4FACF7"/><defs><linearGradient id="grad1_0" x1="33.3%" y1="0%" x2="100%" y2="100%"><stop offset="20%" stop-color="#4facf7" stop-opacity="1"/><stop offset="80%" stop-color="#4facf7" stop-opacity="1"/></linearGradient></defs><defs><linearGradient id="grad2_0" x1="0%" y1="0%" x2="66.7%" y2="100%"><stop offset="20%" stop-color="#4facf7" stop-opacity="1"/><stop offset="80%" stop-color="#4facf7" stop-opacity="1"/></linearGradient></defs><g transform="translate(900, 0)"><path d="M0 486.7C-62.8 477.9 -125.7 469.1 -185.2 447.2C-244.8 425.2 -301.1 390.2 -344.2 344.2C-387.3 298.1 -417.3 241 -438.8 181.8C-460.4 122.6 -473.6 61.3 -486.7 0L0 0Z" fill="#FFFFFF"/></g><g transform="translate(0, 600)"><path d="M0 -486.7C53 -449.6 106 -412.4 161.1 -389C216.2 -365.5 273.4 -355.7 325.3 -325.3C377.1 -294.9 423.7 -243.9 449.7 -186.3C475.7 -128.6 481.2 -64.3 486.7 0L0 0Z" fill="#FFFFFF"/></g></svg>